<svg width="64" height="64" viewBox="0 0 16.933 16.933" xmlns="http://www.w3.org/2000/svg"><g aria-label="Aa" style="font-size:9.99355px;font-family:Algerian;-inkscape-font-specification:Algerian;letter-spacing:1.30289px;fill:#1a1a1a;stroke:#1a1a1a;stroke-width:.832798" stroke="none"><path style="color:#000;-inkscape-font-specification:'Century Gothic';stroke:none;-inkscape-stroke:none" d="m5.287 4.54 3.335 7.183-.77-.001-1.124-2.364-3.094-.005-1.126 2.36-.8-.002 3.404-7.172Zm-.09 1.522L3.957 8.66l2.455.005z" transform="scale(.95555 1.04652)"/><path style="color:#000;-inkscape-font-specification:'Century Gothic';stroke:none;-inkscape-stroke:none" d="m4.848 4.123-3.8 8.004 1.722.002 1.126-2.36 2.569.004 1.123 2.364 1.687.004-3.722-8.018h-.266zm.345 2.914.565 1.21h-1.14zM16.224 6.412l-.01 5.31-.672-.002.001-.913q-.43.522-.967.784-.533.263-1.167.262-1.127-.002-1.926-.818-.794-.822-.792-1.993.002-1.146.809-1.96.806-.813 1.938-.811.654 0 1.18.28.532.279.931.836l.002-.976zm-2.733.517q-.571 0-1.055.282-.483.277-.772.784-.284.507-.285 1.073-.001.561.286 1.074t.77.802q.487.283 1.043.284.561.001 1.065-.28.503-.283.772-.765.274-.483.275-1.088.002-.922-.607-1.543-.604-.621-1.492-.623z" transform="scale(.95555 1.04652)"/><path style="color:#000;-inkscape-font-specification:'Century Gothic';stroke:none;-inkscape-stroke:none" d="M13.44 5.854a3.086 3.086 0 0 0-2.237.935 3.143 3.143 0 0 0-.928 2.252 3.21 3.21 0 0 0 .909 2.283l.002.002c.6.614 1.37.942 2.222.944.48 0 .936-.101 1.35-.305.138-.068.24-.208.367-.297v.467l1.506.004.01-6.143h-.416l-1.09-.002v.477c-.114-.084-.196-.222-.32-.287-.414-.22-.88-.33-1.375-.33zm.05 1.492c.495 0 .862.155 1.194.496h.002v.002c.333.34.489.727.488 1.25 0 .34-.075.626-.22.883l-.003.002v.001a1.52 1.52 0 0 1-.611.604 1.707 1.707 0 0 1-.861.228c-.3 0-.566-.073-.83-.226l-.003-.002a1.68 1.68 0 0 1-.617-.645 1.732 1.732 0 0 1-.002-1.74 1.62 1.62 0 0 1 .616-.627l.002-.002h.002c.26-.152.532-.225.843-.224zm2.201.953.114.16v.129c-.022-.104-.08-.19-.114-.29Z" transform="scale(.95555 1.04652)"/></g></svg>